<svg width="30" height="30" viewBox="0 0 30 30" fill="none" xmlns="http://www.w3.org/2000/svg">
<g id="&#240;&#159;&#166;&#134; icon &#34;call&#34;">
<path id="Vector" d="M24.0385 30.0055C22.7311 30.0055 20.8946 29.5326 18.1445 27.9962C14.8002 26.1208 12.2136 24.3894 8.88743 21.072C5.68052 17.8671 4.11994 15.7921 1.93578 11.8176C-0.531685 7.33012 -0.111063 4.97785 0.359122 3.97251C0.919058 2.77093 1.74557 2.05225 2.81387 1.33894C3.42065 0.941381 4.06278 0.600585 4.73211 0.320873C4.79909 0.292072 4.86138 0.264611 4.91697 0.23983C5.24852 0.0904686 5.75085 -0.135247 6.38714 0.105874C6.81178 0.265281 7.19088 0.591464 7.7843 1.17752C9.00129 2.37777 10.6644 5.05086 11.2779 6.36363C11.6898 7.2484 11.9624 7.83245 11.9631 8.4875C11.9631 9.2544 11.5773 9.84581 11.1091 10.4841C11.0213 10.604 10.9343 10.7185 10.8499 10.8297C10.3402 11.4995 10.2283 11.6931 10.302 12.0387C10.4514 12.7332 11.5652 14.8008 13.3957 16.6273C15.2262 18.4538 17.2342 19.4973 17.9315 19.646C18.2918 19.7231 18.4894 19.6065 19.1806 19.0787C19.2797 19.003 19.3815 18.9247 19.488 18.8463C20.202 18.3152 20.766 17.9394 21.5148 17.9394H21.5188C22.1705 17.9394 22.7284 18.2221 23.6527 18.6882C24.8583 19.2964 27.6118 20.938 28.8194 22.1564C29.4068 22.7484 29.7343 23.1262 29.8944 23.5502C30.1355 24.1885 29.9085 24.6888 29.7604 25.0237C29.7357 25.0793 29.7082 25.1402 29.6794 25.2079C29.3975 25.876 29.0547 26.5168 28.6553 27.1221C27.9433 28.1871 27.222 29.0116 26.0177 29.5722C25.3993 29.8647 24.7226 30.0128 24.0385 30.0055Z" fill="#212221"/>
</g>
</svg>
